<?xml version="1.0" encoding="utf-8"?>
<svg width="540" height="300" viewBox="-10 -10 540 300" xmlns="http://www.w3.org/2000/svg">
  <style>
        .svg__trainloop__text { fill: #1a1e23; font: 18px Arial, sans-serif }
        .svg__trainloop__text-small { fill: #1a1e23; font: 16px Arial, sans-serif }
    </style>
  <path fill="none" stroke-width="2" stroke-miterlimit="10" d="M 42.367 95.9 L 74.167 95.9" transform="matrix(0, -1, 1, 0, -37.633001, 154.167002)" style="stroke: rgb(130, 179, 102);"/>
  <path stroke-width="2" stroke-miterlimit="10" d="M 62.267 114.8 L 54.267 118.8 L 56.267 114.8 L 54.267 110.8 Z" style="stroke: rgb(130, 179, 102); fill: rgb(130, 179, 102);" transform="matrix(0, 1, -1, 0, 173.067001, 56.533005)"/>
  <text class="svg__trainloop__text-small" dy="1em" width="35" height="18" style="white-space: pre-wrap; font-size: 16px;" x="263.239" y="174.545">cit_age</text>
  <path fill="#f5f5f5" stroke="#666" stroke-width="2" stroke-miterlimit="10" d="M 266.297 0 L 326.297 0 L 356.297 40 L 326.297 80 L 266.297 80 L 236.297 40 Z"/>
  <path stroke="#82b366" stroke-width="2" stroke-miterlimit="10" d="M 30 0 L 90 0 L 120 39.999 L 90 79.999 L 30 79.999 L 0 39.999 Z" style="fill: rgb(213, 232, 212);"/>
  <text class="svg__trainloop__text" dy="0.85em" width="61" height="16" style="white-space: pre-wrap; font-size: 18px;" x="36.503" y="29.376">XLSX</text>
  <path fill="none" stroke-width="2" stroke-miterlimit="10" d="M 283.6 95.4 L 314.4 95.4" transform="matrix(0, -1, 1, 0, 203.599998, 394.400002)" style="stroke: rgb(102, 102, 102);"/>
  <path stroke-width="2" stroke-miterlimit="10" d="M 303 113.8 L 295 117.8 L 297 113.8 L 295 109.8 Z" transform="matrix(0, 1, -1, 0, 412.800003, -185.199997)" style="stroke: rgb(102, 102, 102); fill: rgb(102, 102, 102);"/>
  <path fill="#fff2cc" stroke="#d6b656" stroke-width="2" d="M 0 125.44 L 120 125.44 L 120 155.44 L 0 155.44 Z"/>
  <path fill="#fff2cc" stroke="#d6b656" stroke-width="2" d="M 0 170 L 120 170 L 120 224.4 L 0 224.4 Z"/>
  <text class="svg__trainloop__text-small" dy="1em" width="27" height="18" style="white-space: pre-wrap; font-size: 16px;" x="14.723" y="174.543">subject_race</text>
  <path fill="#fff2cc" stroke="#d6b656" stroke-width="2" d="M 236.297 125.44 L 356.297 125.44 L 356.297 155.44 L 236.297 155.44 Z"/>
  <path fill="#fff2cc" stroke="#d6b656" stroke-width="2" d="M 236.297 170 L 356.297 170 L 356.297 224.4 L 236.297 224.4 Z"/>
  <text class="svg__trainloop__text-small" dy="1em" width="27" height="18" style="white-space: pre-wrap; font-size: 16px; font-family: Arial, sans-serif; line-height: normal; width: 113.703px; perspective-origin: 56.8438px 0px; fill: rgb(26, 30, 35);" x="15.723" y="129.51">officer_race</text>
  <text class="svg__trainloop__text-small" dy="1em" width="27" height="18" style="white-space: pre-wrap; font-size: 16px; font-family: Arial, sans-serif; line-height: normal; width: 113.703px; perspective-origin: 56.8438px 0px; fill: rgb(26, 30, 35);" x="271.215" y="173.543">cit_race</text>
  <path fill="none" stroke-width="2" stroke-miterlimit="10" d="M 0 200 L 120 200" transform="matrix(-1, 0, 0, -1, 120, 400)" style="stroke: rgb(214, 182, 86);"/>
  <text class="svg__trainloop__text-small" dy="1em" width="27" height="18" style="white-space: pre-wrap; font-size: 16px; font-family: Arial, sans-serif; line-height: normal; width: 120.141px; perspective-origin: 60.0625px 0px; fill: rgb(26, 30, 35);" x="49.723" y="204.896">W</text>
  <path fill="none" stroke-width="2" stroke-miterlimit="10" d="M 236.297 200 L 356.297 200" transform="matrix(-1, 0, 0, -1, 592.593994, 400)" style="stroke: rgb(214, 182, 86);"/>
  <text class="svg__trainloop__text-small" dy="1em" width="27" height="18" style="white-space: pre-wrap; font-size: 16px; font-family: Arial, sans-serif; line-height: normal; width: 113.703px; perspective-origin: 56.8438px 0px; fill: rgb(26, 30, 35);" x="278.242" y="203.902">White</text>
  <path fill="none" stroke-width="2" stroke-miterlimit="10" d="M 58.271 239.884 L 58.267 255.256 L 300 255.256 L 300 239.667 L 300 255.256" style="stroke: rgb(50, 58, 69);"/>
  <text style="fill: rgb(51, 51, 51); font-size: 12px; white-space: pre;" x="60.279" y="275.865">Same column, but different label &amp; value format</text>
  <path fill="none" stroke-width="2" stroke-miterlimit="10" d="M 360.658 134.823 L 360.658 145.568 L 405.298 145.568 L 405.298 134.672 L 405.298 145.568" transform="matrix(0, -1, 1, 0, 242.858002, 523.097992)" style="stroke: rgb(50, 58, 69);"/>
  <text style="fill: rgb(51, 51, 51); font-size: 12px; white-space: pre;" x="414.855" y="129.613" transform="matrix(1, 0, 0, 1, -15.872063, 7.643127)">Some agencies provide<tspan x="414.8550109863281" dy="1em">​</tspan>more data than others</text>
  <text style="fill: rgb(51, 51, 51); font-size: 18px; white-space: pre;" x="278.25" y="44.675">CSV</text>
  <path fill="none" stroke-width="2" stroke-miterlimit="10" d="M 343.493 35.202 L 343.493 44.933 L 423.492 44.933 L 423.492 35.066 L 423.492 44.933" transform="matrix(0, -1, 1, 0, 343.493008, 423.492008)" style="stroke: rgb(50, 58, 69);"/>
  <text style="fill: rgb(51, 51, 51); font-size: 12px; white-space: pre;" x="400.011" y="44.019">Different file formats</text>
</svg>