<?xml version="1.0" encoding="utf-8"?>
<svg viewBox="-7 -39 625 280" xmlns="http://www.w3.org/2000/svg" xmlns:bx="https://boxy-svg.com">
  <defs>
    <bx:grid x="0" y="0" width="59.941" height="99.459"/>
  </defs>
  <style>
        .svg__trainloop__text { fill: #1a1e23; font: 18px Arial, sans-serif }
        .svg__trainloop__text-small { fill: #1a1e23; font: 16px Arial, sans-serif }
    </style>
  <text style="fill: rgb(51, 51, 51); font-size: 18px; white-space: pre;" x="24.974" y="11.654">Agency 1</text>
  <text style="fill: rgb(51, 51, 51); font-size: 18px; white-space: pre;" x="166.86" y="11.654">Agency 2</text>
  <path fill="#fff2cc" stroke="#d6b656" stroke-width="2" d="M 0 21.538 L 120 21.538 L 120 75.938 L 0 75.938 Z"/>
  <text class="svg__trainloop__text-small" dy="1em" width="27" height="18" style="white-space: pre-wrap; font-size: 16px; font-family: Arial, sans-serif; line-height: normal; width: 120.141px; perspective-origin: 60.0625px 0px; fill: rgb(26, 30, 35);" x="15.931" y="26.434">subject_race</text>
  <path fill="none" stroke-width="2" stroke-miterlimit="10" d="M 0 51.031 L 120 51.031" style="stroke: rgb(214, 182, 86);" transform="matrix(-1, 0, 0, -1, 120, 102.061996)"/>
  <text class="svg__trainloop__text-small" dy="1em" width="27" height="18" style="white-space: pre-wrap; font-size: 16px; font-family: Arial, sans-serif; line-height: normal; width: 120.141px; perspective-origin: 60.0625px 0px; fill: rgb(26, 30, 35);" x="53.102" y="54.427">W</text>
  <path fill="#fff2cc" stroke="#d6b656" stroke-width="2" d="M 141.344 21.538 L 261.344 21.538 L 261.344 75.938 L 141.344 75.938 Z"/>
  <path fill="none" stroke-width="2" stroke-miterlimit="10" d="M 141.344 51.031 L 261.344 51.031" style="stroke: rgb(214, 182, 86);" transform="matrix(-1, 0, 0, -1, 402.687988, 102.061996)"/>
  <text class="svg__trainloop__text-small" dy="1em" width="27" height="18" style="white-space: pre-wrap; font-size: 16px; font-family: Arial, sans-serif; line-height: normal; width: 120.141px; perspective-origin: 60.0625px 0px; fill: rgb(26, 30, 35);" x="174.668" y="25.434">cit_race</text>
  <text class="svg__trainloop__text-small" dy="1em" width="27" height="18" style="white-space: pre-wrap; font-size: 16px; font-family: Arial, sans-serif; line-height: normal; width: 120.141px; perspective-origin: 60.0625px 0px; fill: rgb(26, 30, 35);" x="179.832" y="54.434">White</text>
  <path fill="#fff2cc" stroke="#d6b656" stroke-width="2" d="M 71.188 126.112 L 191.188 126.112 L 191.188 180.512 L 71.188 180.512 Z"/>
  <path fill="none" stroke-width="2" stroke-miterlimit="10" d="M 68.188 155.509 L 188.188 155.509" style="stroke: rgb(214, 182, 86);" transform="matrix(-1, 0, 0, -1, 256.376007, 311.018005)"/>
  <text class="svg__trainloop__text-small" dy="1em" width="27" height="18" style="white-space: pre-wrap; font-size: 16px; font-family: Arial, sans-serif; line-height: normal; width: 120.141px; perspective-origin: 60.0625px 0px; fill: rgb(26, 30, 35);" x="84.962" y="130.464">subject_race</text>
  <text class="svg__trainloop__text-small" dy="1em" width="27" height="18" style="white-space: pre-wrap; font-size: 16px; font-family: Arial, sans-serif; line-height: normal; width: 120.141px; perspective-origin: 60.0625px 0px; fill: rgb(26, 30, 35);" x="106.637" y="159.006">White</text>
  <g stroke-width="2" transform="matrix(1, 0, 0, 1, 46.281998, -55.6875)">
    <g stroke-miterlimit="10" transform="matrix(1, 0, 0, 1, 0.000002, 0)">
      <path d="M 371.422 136.606 L 135.422 136.606" fill="none" style="stroke: rgb(50, 58, 69);" transform="matrix(0, -1, 1, 0, 116.815994, 390.028)"/>
      <path d="M 13.659 139.46 L 27.455 172.781" style="fill: none; stroke: rgb(102, 102, 102); stroke-width: 3; stroke-miterlimit: 10; stroke-dasharray: 1, 6; stroke-linecap: round;"/>
      <path d="M 135.541 172.781 L 150.544 139.46" style="fill: none; stroke: rgb(102, 102, 102); stroke-width: 3; stroke-miterlimit: 10; stroke-dasharray: 1, 6; stroke-linecap: round;" transform="matrix(-1, 0, 0, -1, 289.873993, 312.241013)"/>
      <path fill="none" stroke-width="2" stroke-miterlimit="10" d="M -46.278 239.137 L -46.282 254.606 L 79.985 254.606 L 215.471 254.606 L 215.471 238.919 L 215.471 254.606" style="stroke: rgb(50, 58, 69);"/>
      <text style="fill: rgb(51, 51, 51); font-size: 12px; white-space: pre;" x="-46.268" y="273.051">Transform common data according to a pre-defined <tspan x="-46.268001556396484" dy="1em">​</tspan>schema</text>
    </g>
    <ellipse cx="747.286" cy="291.349" fill="#f5f5f5" rx="45" ry="45" stroke="#09a3d5"/>
  </g>
  <text style="fill: rgb(51, 51, 51); font-size: 18px; white-space: pre;" x="39.63" y="-22.775">Case 1: Uniform access</text>
  <text style="fill: rgb(51, 51, 51); font-size: 18px; white-space: pre;" x="354.937" y="-22.753">Case 2: Diversity preservation</text>
  <text style="fill: rgb(51, 51, 51); font-size: 18px; white-space: pre;" x="362.21" y="11.654">Agency 1</text>
  <path fill="#fff2cc" stroke="#d6b656" stroke-width="2" d="M 339.298 21.538 L 459.298 21.538 L 459.298 75.938 L 339.298 75.938 Z"/>
  <path fill="#fff2cc" stroke="#d6b656" stroke-width="2" d="M 479.528 21.538 L 599.528 21.538 L 599.528 75.938 L 479.528 75.938 Z"/>
  <text style="fill: rgb(51, 51, 51); font-size: 18px; white-space: pre;" x="504.674" y="11.654">Agency 2</text>
  <text class="svg__trainloop__text-small" dy="1em" width="27" height="18" style="white-space: pre-wrap; font-size: 16px; font-family: Arial, sans-serif; line-height: normal; width: 120.141px; perspective-origin: 60.0625px 0px; fill: rgb(26, 30, 35);" x="512.306" y="25.434">off_race</text>
  <path fill="none" stroke-width="2" stroke-miterlimit="10" d="M 479.528 51.031 L 599.528 51.031" style="stroke: rgb(214, 182, 86);" transform="matrix(-1, 0, 0, -1, 1079.05603, 102.061996)"/>
  <text class="svg__trainloop__text-small" dy="1em" width="27" height="18" style="white-space: pre-wrap; font-size: 16px; font-family: Arial, sans-serif; line-height: normal; width: 120.141px; perspective-origin: 60.0625px 0px; fill: rgb(26, 30, 35);" x="521.891" y="54.434">White</text>
  <g stroke-width="2" transform="matrix(1, 0, 0, 1, 395.203857, -55.671875)">
    <g stroke-miterlimit="10" transform="matrix(1, 0, 0, 1, 0.000002, 0)">
      <path d="M 7.659 139.46 L 21.455 172.781" style="fill: none; stroke: rgb(102, 102, 102); stroke-width: 3; stroke-miterlimit: 10; stroke-dasharray: 1, 6; stroke-linecap: round;"/>
      <path d="M 135.265 172.781 L 147.333 139.46" style="fill: none; stroke: rgb(102, 102, 102); stroke-width: 3; stroke-miterlimit: 10; stroke-dasharray: 1, 6; stroke-linecap: round;" transform="matrix(-1, 0, 0, -1, 282.597992, 312.241013)"/>
      <path fill="none" stroke-width="2" stroke-miterlimit="10" d="M -55.494 239.137 L -55.498 254.59 L 69.781 254.59 L 204.206 254.59 L 204.206 238.919 L 204.206 254.59" style="stroke: rgb(50, 58, 69);"/>
      <text style="fill: rgb(51, 51, 51); font-size: 12px; white-space: pre;" x="-52.268" y="273.051">Don't lose data for the sake of uniformity</text>
      <g stroke-width="2" transform="matrix(1, 0, 0, 1, -418.485239, 13.962151)">
        <g stroke-miterlimit="10" transform="matrix(1, 0, 0, 1, 0.000002, 0)"/>
      </g>
    </g>
    <ellipse cx="747.286" cy="291.349" fill="#f5f5f5" rx="45" ry="45" stroke="#09a3d5"/>
  </g>
  <path fill="#fff2cc" stroke="#d6b656" stroke-width="2" d="M 414.469 124.116 L 534.469 124.116 L 534.469 178.516 L 414.469 178.516 Z"/>
  <text class="svg__trainloop__text-small" dy="1em" width="27" height="18" style="white-space: pre-wrap; font-size: 16px; font-family: Arial, sans-serif; line-height: normal; width: 120.141px; perspective-origin: 60.0625px 0px; fill: rgb(26, 30, 35);" x="433.243" y="129.465">officer_race</text>
  <path fill="none" stroke-width="2" stroke-miterlimit="10" d="M 414.469 155.509 L 534.469 155.509" style="stroke: rgb(214, 182, 86);" transform="matrix(-1, 0, 0, -1, 948.937988, 311.018005)"/>
  <text class="svg__trainloop__text-small" dy="1em" width="27" height="18" style="white-space: pre-wrap; font-size: 16px; font-family: Arial, sans-serif; line-height: normal; width: 120.141px; perspective-origin: 60.0625px 0px; fill: rgb(26, 30, 35);" x="457.298" y="158.012">White</text>
</svg>