<svg fill="#262626" xmlns="http://www.w3.org/2000/svg" xmlns:xlink="http://www.w3.org/1999/xlink" version="1.1" x="0px" y="0px" viewBox="0 0 64 64" style="enable-background:new 0 0 64 64;" xml:space="preserve"><style type="text/css">
	.st0{display:none;}
	.st1{display:inline;}
	.st2{fill:none;stroke:#262626;stroke-width:0.1;stroke-miterlimit:10;}
</style><g class="st0"><g class="st1"><rect x="2" y="2" class="st2" width="60" height="60"></rect><line class="st2" x1="32" y1="2" x2="32" y2="62"></line><line class="st2" x1="62" y1="32" x2="2" y2="32"></line><line class="st2" x1="2" y1="2" x2="62" y2="62"></line><rect x="10" y="10" class="st2" width="44" height="44"></rect><line class="st2" x1="62" y1="2" x2="2" y2="62"></line><line class="st2" x1="2" y1="32" x2="32" y2="2"></line><line class="st2" x1="32" y1="2" x2="62" y2="32"></line><line class="st2" x1="62" y1="32" x2="32" y2="62"></line><line class="st2" x1="32" y1="62" x2="2" y2="32"></line><circle class="st2" cx="32" cy="32" r="21"></circle></g></g><polygon points="48.5,40 49.8,42 62,42 62,40 "></polygon><path d="M51.7,45c-0.6-0.9-1.8-1.2-2.8-0.6l-4.4-6.8C49.1,33.9,52,28.3,52,22c0-11-9-20-20-20s-20,9-20,20s9,20,20,20  c3.3,0,6.4-0.8,9.1-2.2l4.4,6.8c-0.9,0.6-1.2,1.8-0.6,2.8l7.6,11.7c0.6,0.9,1.8,1.2,2.8,0.6l3.4-2.2c1-0.6,1.2-1.9,0.6-2.8L51.7,45z   M16,22c0-8.8,7.2-16,16-16s16,7.2,16,16s-7.2,16-16,16S16,30.8,16,22z"></path><path d="M2,40v2h20.9c-1.3-0.6-2.4-1.2-3.5-2H2z"></path><path d="M51,33.1c-1.1,1.8-2.4,3.4-3.9,4.9H51V33.1z"></path><path d="M45,16.8v10.4c0.6-1.6,1-3.3,1-5.2S45.6,18.4,45,16.8z"></path><path d="M19,27.2V16.8c-0.6,1.6-1,3.3-1,5.2S18.4,25.6,19,27.2z"></path><path d="M13,38h3.9c-1.5-1.4-2.8-3.1-3.9-4.9V38z"></path><path d="M37,35.1c2.4-0.9,4.4-2.5,6-4.4V18h-6V35.1z"></path><path d="M59,6h-6v9.4c0.6,2.1,1,4.3,1,6.6s-0.4,4.5-1,6.6V38h6V6z"></path><path d="M11,28.6c-0.6-2.1-1-4.3-1-6.6c0-1.4,0.1-2.7,0.4-4H5v20h6V28.6z"></path><path d="M29,35.7c1,0.2,2,0.3,3,0.3s2-0.1,3-0.3V9h-6V35.7z"></path><path d="M21,30.6c1.6,2,3.6,3.5,6,4.4V14h-6V30.6z"></path></svg>